<?xml version="1.0" encoding="UTF-8"?><svg id="_层_1" xmlns="http://www.w3.org/2000/svg" viewBox="0 0 200 200"><polygon points="175.85 78 163.02 78 153.85 78 141.02 78 141.02 87.17 153.85 87.17 153.85 122 163.02 122 163.02 87.17 175.85 87.17 175.85 78"/><path d="M135.06,112.83h-19.25c-3.54,0-6.42-2.88-6.42-6.42v-12.83c0-3.54,2.88-6.42,6.42-6.42h19.25v-9.17h-19.25c-8.59,0-15.58,6.99-15.58,15.58v12.83c0,8.59,6.99,15.58,15.58,15.58h19.25v-9.17Z"/><path d="M72.73,106.42v-28.42h-9.17v28.42c0,8.59,6.99,15.58,15.58,15.58h19.25v-9.17h-19.25c-3.54,0-6.42-2.88-6.42-6.42Z"/><path d="M43.4,78H24.15v44h9.17v-7.33h10.08c8.59,0,15.58-6.99,15.58-15.58v-5.5c0-8.59-6.99-15.58-15.58-15.58Zm6.42,21.08c0,3.54-2.88,6.42-6.42,6.42h-10.08v-18.33h10.08c3.54,0,6.42,2.88,6.42,6.42v5.5Z"/></svg>